<svg xmlns="http://www.w3.org/2000/svg" height="24" viewBox="0 -960 960 960" width="24"><path d="M108.078-130.58v-653.904q0-28.414 19.916-48.33 19.916-19.915 48.269-19.915h607.474q28.353 0 48.269 19.915 19.916 19.916 19.916 48.277v449.074q0 28.361-19.916 48.277-19.916 19.915-48.268 19.915H244.769L108.078-130.58Zm113.269-192.651h562.306q4.616 0 8.462-3.846 3.847-3.847 3.847-8.462v-448.922q0-4.615-3.847-8.462-3.846-3.846-8.462-3.846H176.347q-4.616 0-8.462 3.846-3.847 3.847-3.847 8.462v518.231l57.309-57.001Zm-57.309 0v-473.538 473.538Z"/></svg>